<svg xmlns="http://www.w3.org/2000/svg" width="920" height="490" viewBox="0 0 920 490" style="font-family: ui-monospace, 'Cascadia Code', monospace; background: #0d1117;">
  <defs>
    <filter id="shadow" x="-5%" y="-5%" width="110%" height="110%">
      <feDropShadow dx="0" dy="2" stdDeviation="3" flood-color="#000" flood-opacity="0.4"/>
    </filter>
  </defs>
  <text x="460" y="30" text-anchor="middle" fill="#58a6ff" font-size="16" font-weight="700">k8s-slo-manager</text>
  <text x="460" y="50" text-anchor="middle" fill="#6e7681" font-size="11">SLO Tracking · Error Budget · Multi-Window Burn Rate (Google SRE Model)</text>
  <rect x="20" y="70" width="155" height="270" rx="10" fill="none" stroke="#388bfd" stroke-width="1" stroke-dasharray="5,4"/>
  <rect x="30" y="63" width="96" height="14" rx="3" fill="#0d1117"/>
  <text x="36" y="73" fill="#388bfd" font-size="11" font-weight="600">K8s Services</text>
  <rect x="30" y="95" width="130" height="42" rx="6" fill="#1c2433" stroke="#388bfd" stroke-width="1.2"/>
  <text x="95" y="116" text-anchor="middle" fill="#79c0ff" font-size="12">api-service</text>
  <rect x="30" y="152" width="130" height="42" rx="6" fill="#1c2433" stroke="#388bfd" stroke-width="1.2"/>
  <text x="95" y="173" text-anchor="middle" fill="#79c0ff" font-size="12">auth-service</text>
  <rect x="30" y="209" width="130" height="42" rx="6" fill="#1c2433" stroke="#388bfd" stroke-width="1.2"/>
  <text x="95" y="230" text-anchor="middle" fill="#79c0ff" font-size="12">ml-service</text>
  <rect x="30" y="266" width="130" height="42" rx="6" fill="#1c2433" stroke="#388bfd" stroke-width="1.2"/>
  <text x="95" y="287" text-anchor="middle" fill="#79c0ff" font-size="12">worker</text>
  <rect x="200" y="140" width="160" height="130" rx="10" fill="none" stroke="#e6522c" stroke-width="1" stroke-dasharray="5,4"/>
  <rect x="210" y="133" width="82" height="14" rx="3" fill="#0d1117"/>
  <text x="216" y="143" fill="#e6522c" font-size="11" font-weight="600">Prometheus</text>
  <rect x="215" y="165" width="130" height="40" rx="6" fill="#2d1200" stroke="#e6522c" stroke-width="1.2"/>
  <text x="280" y="177" text-anchor="middle" fill="#ff7b72" font-size="11">Scrape metrics</text>
  <text x="280" y="193" text-anchor="middle" fill="#ff7b72" font-size="11">(15s interval)</text>
  <rect x="215" y="220" width="130" height="40" rx="6" fill="#2d1200" stroke="#e6522c" stroke-width="1.2"/>
  <text x="280" y="232" text-anchor="middle" fill="#ff7b72" font-size="11">PromQL queries</text>
  <text x="280" y="248" text-anchor="middle" fill="#ff7b72" font-size="11">on evaluation</text>
  <rect x="395" y="80" width="220" height="310" rx="10" fill="none" stroke="#a371f7" stroke-width="1" stroke-dasharray="5,4"/>
  <rect x="405" y="73" width="89" height="14" rx="3" fill="#0d1117"/>
  <text x="411" y="83" fill="#d2a8ff" font-size="11" font-weight="600">SLO Manager</text>
  <rect x="410" y="105" width="190" height="55" rx="6" fill="#1b1535" stroke="#a371f7" stroke-width="1.2"/>
  <text x="505" y="116" text-anchor="middle" fill="#d2a8ff" font-size="11">evaluator.py</text>
  <text x="505" y="132" text-anchor="middle" fill="#d2a8ff" font-size="11">good/total ratio</text>
  <text x="505" y="148" text-anchor="middle" fill="#d2a8ff" font-size="11">per SLO window</text>
  <rect x="410" y="175" width="190" height="65" rx="6" fill="#1b1535" stroke="#a371f7" stroke-width="1.2"/>
  <text x="505" y="183" text-anchor="middle" fill="#d2a8ff" font-size="11">burn_rate.py</text>
  <text x="505" y="199" text-anchor="middle" fill="#d2a8ff" font-size="11">fast: 14.4× in 1h</text>
  <text x="505" y="215" text-anchor="middle" fill="#d2a8ff" font-size="11">slow: 6× in 6h</text>
  <text x="505" y="231" text-anchor="middle" fill="#d2a8ff" font-size="11">ticket: 3× in 3d</text>
  <rect x="410" y="255" width="190" height="55" rx="6" fill="#1b1535" stroke="#a371f7" stroke-width="1.2"/>
  <text x="505" y="266" text-anchor="middle" fill="#d2a8ff" font-size="11">reporter.py</text>
  <text x="505" y="282" text-anchor="middle" fill="#d2a8ff" font-size="11">weekly budget report</text>
  <text x="505" y="298" text-anchor="middle" fill="#d2a8ff" font-size="11">Markdown + JSON</text>
  <rect x="395" y="405" width="220" height="60" rx="6" fill="#2d2a00" stroke="#e3b341" stroke-width="1.2"/>
  <text x="505" y="427" text-anchor="middle" fill="#e3b341" font-size="11">Grafana Dashboard</text>
  <text x="505" y="443" text-anchor="middle" fill="#e3b341" font-size="11">Error budget gauge · Burn rate graph</text>
  <rect x="660" y="100" width="200" height="55" rx="6" fill="#2d0f0f" stroke="#ff7b72" stroke-width="1.2"/>
  <text x="760" y="119" text-anchor="middle" fill="#ff7b72" font-size="11">🔴 Slack — CRITICAL</text>
  <text x="760" y="135" text-anchor="middle" fill="#ff7b72" font-size="11">fast burn page alert</text>
  <rect x="660" y="170" width="200" height="55" rx="6" fill="#2d1b00" stroke="#f0883e" stroke-width="1.2"/>
  <text x="760" y="189" text-anchor="middle" fill="#ffa657" font-size="11">🟡 Slack — WARNING</text>
  <text x="760" y="205" text-anchor="middle" fill="#ffa657" font-size="11">slow burn ticket</text>
  <rect x="660" y="240" width="200" height="55" rx="6" fill="#2d0f0f" stroke="#ff7b72" stroke-width="1.2"/>
  <text x="760" y="259" text-anchor="middle" fill="#ff7b72" font-size="11">PagerDuty</text>
  <text x="760" y="275" text-anchor="middle" fill="#ff7b72" font-size="11">page on critical burn</text>
  <rect x="660" y="310" width="200" height="55" rx="6" fill="#161b22" stroke="#30363d" stroke-width="1.2"/>
  <text x="760" y="329" text-anchor="middle" fill="#8b949e" font-size="11">slo status CLI</text>
  <text x="760" y="345" text-anchor="middle" fill="#8b949e" font-size="11">error budget report</text>
  <defs><marker id="ar3" markerWidth="8" markerHeight="6" refX="6" refY="3" orient="auto"><polygon points="0 0, 8 3, 0 6" fill="#6e7681"/></marker></defs>
  <line x1="175" y1="205" x2="200" y2="205" stroke="#e6522c" stroke-width="1.5" marker-end="url(#ar3)"/>
  <text x="192" y="200" text-anchor="middle" fill="#e6522c" font-size="10">metrics</text>
  <line x1="360" y1="205" x2="395" y2="160" stroke="#a371f7" stroke-width="1.5" marker-end="url(#ar3)"/>
  <text x="382" y="177" text-anchor="middle" fill="#a371f7" font-size="10">PromQL</text>
  <line x1="615" y1="128" x2="660" y2="128" stroke="#ff7b72" stroke-width="1.5" marker-end="url(#ar3)"/>
  <text x="642" y="123" text-anchor="middle" fill="#ff7b72" font-size="10">burn>14.4×</text>
  <line x1="615" y1="198" x2="660" y2="198" stroke="#ffa657" stroke-width="1.5" marker-end="url(#ar3)"/>
  <text x="642" y="193" text-anchor="middle" fill="#ffa657" font-size="10">burn>6×</text>
  <line x1="615" y1="268" x2="660" y2="268" stroke="#ff7b72" stroke-width="1.5" marker-end="url(#ar3)"/>
  <text x="642" y="263" text-anchor="middle" fill="#ff7b72" font-size="10">page</text>
  <line x1="505" y1="350" x2="505" y2="405" stroke="#6e7681" stroke-width="1.5" marker-end="url(#ar3)"/>
  <line x1="615" y1="338" x2="660" y2="338" stroke="#6e7681" stroke-width="1.5" marker-end="url(#ar3)"/>

</svg>